<?xml version="1.0" encoding="iso-8859-1"?>
<!-- Generator: Adobe Illustrator 19.0.0, SVG Export Plug-In . SVG Version: 6.00 Build 0)  -->
<svg version="1.1" id="Layer_1" xmlns="http://www.w3.org/2000/svg" xmlns:xlink="http://www.w3.org/1999/xlink" x="0px" y="0px"
	 viewBox="0 0 347.059 347.059" style="enable-background:new 0 0 347.059 347.059;" xml:space="preserve">
<g>
	<g>
		<rect x="127.643" y="250.886" style="fill:#1E252B;" width="91.773" height="45.124"/>
		<path style="fill:#333E48;" d="M237.58,288.886c0-2.2-1.799-4-4-4H113.479c-2.199,0-4,1.8-4,4v8c0,2.2,1.801,4,4,4H233.58
			c2.201,0,4-1.8,4-4V288.886z"/>
		<path style="fill:#333E48;" d="M339.559,56.172c0-5.5-4.5-10-10-10H17.5c-5.5,0-10,4.5-10,10V253.6c0,5.5,4.5,10,10,10h312.059
			c5.5,0,10-4.5,10-10V56.172z"/>
		<rect x="32.5" y="71.172" style="fill:#1E252B;" width="282.059" height="167.428"/>
		<polygon style="opacity:0.05;fill:#A4A9AD;enable-background:new    ;" points="183.141,71.172 32.5,221.813 32.5,238.6 
			202.588,238.6 314.559,126.628 314.559,71.172 		"/>
	</g>
	<path style="fill:#071C2C;" d="M329.559,38.672H17.5c-9.649,0-17.5,7.851-17.5,17.5V253.6c0,9.649,7.851,17.5,17.5,17.5h102.643
		v6.286h-6.664c-6.341,0-11.5,5.159-11.5,11.5v8c0,6.341,5.159,11.5,11.5,11.5H233.58c6.341,0,11.5-5.159,11.5-11.5v-8
		c0-6.341-5.159-11.5-11.5-11.5h-6.664V271.1h102.643c9.649,0,17.5-7.851,17.5-17.5V56.172
		C347.059,46.523,339.208,38.672,329.559,38.672z M230.08,292.386v1H116.979v-1H230.08z M135.143,277.386V271.1h76.773v6.286
		L135.143,277.386L135.143,277.386z M307.059,231.1H40V78.672h267.059V231.1z M332.059,253.6c0,1.355-1.145,2.5-2.5,2.5h-15v-10
		c4.143,0,7.5-3.358,7.5-7.5V71.172c0-4.142-3.357-7.5-7.5-7.5H32.5c-4.143,0-7.5,3.358-7.5,7.5V238.6c0,4.142,3.357,7.5,7.5,7.5
		h250.029v10H17.5c-1.355,0-2.5-1.145-2.5-2.5V56.172c0-1.355,1.145-2.5,2.5-2.5h312.059c1.355,0,2.5,1.145,2.5,2.5V253.6z"/>
</g>
<g>
</g>
<g>
</g>
<g>
</g>
<g>
</g>
<g>
</g>
<g>
</g>
<g>
</g>
<g>
</g>
<g>
</g>
<g>
</g>
<g>
</g>
<g>
</g>
<g>
</g>
<g>
</g>
<g>
</g>
</svg>
